<svg xmlns="http://www.w3.org/2000/svg" xmlns:xlink="http://www.w3.org/1999/xlink" width="400" height="400" viewBox="0 0 400 400"><defs><linearGradient id="gradient-8" x1="0%" y1="0%" x2="100%" y2="0%">       <stop offset="0%" stop-color="#ad5389"/>       <stop offset="100%" stop-color="#3c1053"/>     </linearGradient></defs>
<rect data-name="background" width="100%" height="100%" fill="#FFFFFF"/><g data-name="container" data="container_num:15" fill="#000000" transform="translate(12.219858861088653, 140.17547377141793) scale(2.3929810491432826)"><path xmlns="http://www.w3.org/2000/svg" d="M50 25c0 8.88-3.62 15.67-10.6 20.11C35.53 47.58 29.93 50 25 50c-8.63 0-14.24-1.37-18.73-8C3.57 38 0 30.2 0 25c0-6.85 1.76-14.06 6.22-18.58S18.04 0 25 0c9.5 0 16.77 5.3 21 13.11 1.88 3.53 4 7.58 4 11.89z"/></g><g data-name="icon" fill="#FFFFFF" data="id:7454926" transform="translate(35.425459239277934, 163.38111815298967) scale(0.7323950916152508)">
  
 <path d="m74.699 53.301c-1.3047 9.7773-8.2773 17.758-17.516 20.539l0.76562 0.44531c0.71875 0.41406 0.96094 1.332 0.54688 2.0508-0.27734 0.48047-0.78125 0.74609-1.3008 0.74609-0.25781 0-0.51562-0.066406-0.75-0.20312l-4.1094-2.3828c-0.078126-0.046875-0.14844-0.10156-0.21484-0.15625-0.007813-0.007813-0.015625-0.007813-0.019532-0.015625-0.12109-0.10938-0.22266-0.23438-0.30078-0.37109-0.011719-0.019531-0.023437-0.039063-0.035156-0.058594-0.074219-0.14453-0.12109-0.29688-0.14844-0.45703-0.003907-0.015625-0.011719-0.027344-0.015626-0.039062-0.003906-0.015626 0-0.03125-0.003906-0.050782-0.003906-0.050781-0.003906-0.10156-0.003906-0.15234 0-0.046874 0-0.097656 0.003906-0.14453s0.015625-0.09375 0.023438-0.14062c0.011718-0.050781 0.019531-0.10156 0.035156-0.14844 0.011719-0.042969 0.03125-0.082031 0.046875-0.125 0.019531-0.050781 0.042969-0.10156 0.066406-0.14844 0.007813-0.015625 0.011719-0.027343 0.019531-0.039062l2.3828-4.1094c0.41406-0.71875 1.3359-0.96094 2.0508-0.54688 0.71875 0.41406 0.96094 1.332 0.54688 2.0508l-0.6875 1.1875c8.2422-2.3789 14.492-9.4414 15.648-18.129 0.10938-0.82031 0.86719-1.3945 1.6875-1.2891 0.8125 0.10938 1.3906 0.86719 1.2812 1.6875zm-48.117-4.918c0.066407 0.007813 0.13281 0.011719 0.19922 0.011719 0.73828 0 1.3867-0.54688 1.4844-1.3008 1.1562-8.6875 7.4062-15.746 15.648-18.129l-0.6875 1.1875c-0.41406 0.71875-0.17187 1.6367 0.54688 2.0508 0.23437 0.13672 0.49609 0.20312 0.75 0.20312 0.51953 0 1.0195-0.26953 1.3008-0.74609l2.3828-4.1094c0.007813-0.015625 0.011719-0.027343 0.019531-0.039062 0.023438-0.046875 0.046876-0.097657 0.066407-0.14453 0.019531-0.039063 0.035156-0.082032 0.046875-0.12109 0.015625-0.050782 0.023437-0.10156 0.035156-0.15625 0.007812-0.042969 0.019531-0.085938 0.023438-0.13281 0.003906-0.050781 0.003906-0.10156 0.003906-0.15234 0-0.046876 0-0.097657-0.003906-0.14453-0.003907-0.019531 0-0.035156-0.003907-0.054687-0.003906-0.035157-0.015625-0.0625-0.023437-0.097657-0.007813-0.03125-0.007813-0.0625-0.015625-0.089843-0.003907-0.011719-0.011719-0.015625-0.011719-0.027344-0.050781-0.17188-0.12891-0.32422-0.22656-0.46484-0.015626-0.019531-0.027344-0.039062-0.042969-0.058593-0.10547-0.13281-0.23438-0.24609-0.38281-0.33594-0.011718-0.007812-0.019531-0.019531-0.03125-0.027344l-4.1094-2.3828c-0.71875-0.41406-1.6328-0.17188-2.0508 0.54688-0.41406 0.71875-0.17188 1.6367 0.54688 2.0508l0.76562 0.44141c-9.2344 2.7852-16.211 10.762-17.516 20.539-0.11328 0.82031 0.46484 1.5742 1.2852 1.6836zm20.523 23.328c-8.7031-1.1562-15.777-7.4023-18.16-15.645l1.1992 0.6875c0.71484 0.41016 1.6367 0.16406 2.0469-0.55859 0.41016-0.71875 0.16016-1.6367-0.55859-2.0469l-4.1094-2.3555c-0.019532-0.011719-0.035157-0.015625-0.054688-0.023438-0.03125-0.015625-0.0625-0.027343-0.09375-0.042969-0.0625-0.027343-0.12109-0.050781-0.18359-0.070312-0.027344-0.007812-0.054687-0.011719-0.085937-0.019531-0.066407-0.015625-0.13281-0.027344-0.19922-0.035157-0.035156-0.003906-0.066406-0.003906-0.10547-0.003906-0.0625 0-0.12109 0-0.18359 0.007813h-0.039063c-0.03125 0.003906-0.058594 0.015625-0.085937 0.019531-0.054688 0.011719-0.10547 0.019531-0.15625 0.035156-0.046876 0.015625-0.089844 0.03125-0.13281 0.050782-0.046875 0.019531-0.089844 0.039062-0.13281 0.0625-0.042968 0.023437-0.082031 0.050781-0.125 0.074218-0.039062 0.027344-0.078124 0.054688-0.11719 0.085938s-0.074219 0.066406-0.10938 0.10156c-0.03125 0.035156-0.066406 0.066406-0.097656 0.10547-0.035156 0.042969-0.0625 0.085937-0.09375 0.13281-0.015625 0.023437-0.035156 0.046874-0.050782 0.070312l-2.3516 4.082c-0.41406 0.71875-0.16797 1.6367 0.55078 2.0508 0.23438 0.13672 0.49219 0.19922 0.74609 0.19922 0.51953 0 1.0234-0.26953 1.3008-0.75l0.41797-0.72656c2.793 9.2188 10.777 16.18 20.562 17.48 0.066406 0.007812 0.13281 0.011718 0.19922 0.011718 0.73828 0 1.3867-0.55078 1.4844-1.3047 0.11719-0.8125-0.46094-1.5664-1.2812-1.6758zm29.207-30.227c-0.71875-0.41016-1.6367-0.16406-2.0469 0.55859l-0.41797 0.73047c-2.7969-9.2109-10.777-16.164-20.562-17.465-0.81641-0.10938-1.5742 0.46875-1.6836 1.2891-0.10937 0.82031 0.46875 1.5742 1.2891 1.6836 8.7031 1.1562 15.777 7.4023 18.16 15.645l-1.1992-0.6875c-0.71875-0.41016-1.6367-0.16406-2.0469 0.55859-0.41016 0.71875-0.16016 1.6367 0.55859 2.0469l4.1094 2.3555c0.046875 0.023437 0.09375 0.035156 0.14062 0.058593 0.042969 0.019532 0.085938 0.039063 0.13281 0.054688 0.15234 0.050781 0.30859 0.085938 0.46484 0.085938h0.003906 0.003906c0.0625 0 0.12891-0.003907 0.19531-0.011719 0.046876-0.007813 0.089844-0.019531 0.13672-0.03125 0.019531-0.003907 0.039063-0.003907 0.0625-0.007813 0.007813-0.003906 0.015625-0.011718 0.023438-0.011718 0.17188-0.050782 0.32812-0.13281 0.46875-0.23438 0.015625-0.011718 0.03125-0.023437 0.046875-0.035156 0.14062-0.10938 0.25391-0.24609 0.34375-0.39453 0.007812-0.011719 0.015625-0.015625 0.023437-0.023437l2.3516-4.1094c0.40625-0.72656 0.15625-1.6445-0.55859-2.0547zm-23.508 26.555h-5.5859c-0.64844 0-1.2266-0.41797-1.4258-1.0352l-0.60547-1.8516c-0.85547-0.27344-1.6914-0.61719-2.4961-1.0273l-1.7344 0.88672c-0.57812 0.30078-1.2812 0.1875-1.7422-0.27344l-3.9414-3.9375c-0.45703-0.45703-0.57031-1.1602-0.27734-1.7383l0.88281-1.7461c-0.41797-0.78516-0.76953-1.6172-1.0469-2.4922l-1.8555-0.60547c-0.61719-0.19922-1.0352-0.77734-1.0352-1.4258v-5.5859c0-0.64844 0.41797-1.2266 1.0352-1.4258l1.8555-0.60547c0.27734-0.87109 0.62891-1.707 1.0469-2.4922l-0.88281-1.7461c-0.29297-0.57812-0.17969-1.2773 0.27734-1.7383l3.9414-3.9414c0.46094-0.46094 1.1641-0.57422 1.7422-0.27344l1.7344 0.88672c0.80859-0.41016 1.6406-0.75781 2.4961-1.0273l0.60547-1.8516c0.19922-0.61719 0.77734-1.0352 1.4258-1.0352h5.5859c0.65234 0 1.2344 0.42578 1.4297 1.0508l0.58203 1.8438c0.85156 0.26953 1.6836 0.61328 2.4844 1.0234l1.7344-0.88672c0.57812-0.29688 1.2852-0.1875 1.7422 0.27344l3.9609 3.9336c0.46484 0.45703 0.57812 1.1641 0.28516 1.7461l-0.89063 1.7578c0.41016 0.79297 0.75391 1.6211 1.0234 2.4805l1.8555 0.60547c0.61719 0.19922 1.0352 0.77734 1.0352 1.4258v5.5859c0 0.64844-0.41797 1.2266-1.0352 1.4258l-1.8555 0.60547c-0.26953 0.85938-0.61328 1.6875-1.0234 2.4805l0.89063 1.7578c0.29297 0.58203 0.17969 1.2852-0.28516 1.7461l-3.9609 3.9336c-0.46094 0.46094-1.1641 0.57031-1.7422 0.27344l-1.7344-0.88672c-0.80469 0.41016-1.6367 0.75391-2.4844 1.0234l-0.58203 1.8438c-0.19922 0.61328-0.77734 1.0391-1.4297 1.0391zm0.44141-5.5586c1.1445-0.30078 2.25-0.75391 3.2891-1.3516 0.44141-0.25391 0.98047-0.26953 1.4336-0.035156l1.4648 0.75 2.4258-2.4062-0.75391-1.4883c-0.23047-0.45703-0.21484-0.99609 0.046875-1.4375 0.58984-1.0039 1.043-2.0977 1.3438-3.2461 0.12891-0.49609 0.5-0.89062 0.98438-1.0469l1.5742-0.51172v-3.4062l-1.5742-0.51562c-0.48438-0.15625-0.85547-0.55469-0.98438-1.0469-0.30078-1.1484-0.75391-2.2422-1.3438-3.2422-0.26172-0.44141-0.27734-0.98047-0.046875-1.4375l0.75391-1.4883-2.4258-2.4062-1.4648 0.75c-0.45312 0.23047-0.98828 0.21875-1.4336-0.035156-1.0391-0.59766-2.1484-1.0547-3.2852-1.3516-0.5-0.12891-0.89844-0.50781-1.0547-1l-0.49219-1.5586h-3.3945l-0.51562 1.5703c-0.15625 0.48438-0.55469 0.85547-1.0469 0.98438-1.1406 0.29687-2.2461 0.75391-3.2852 1.3516-0.44141 0.25781-0.98047 0.26953-1.4336 0.035156l-1.4648-0.75-2.3984 2.3984 0.75781 1.4961c0.23438 0.46484 0.21094 1.0195-0.0625 1.4609-0.59375 0.96875-1.0508 2.0547-1.3555 3.2227-0.12891 0.49219-0.5 0.89062-0.98438 1.0469l-1.5742 0.51562v3.4062l1.5742 0.51172c0.48438 0.15625 0.85547 0.55469 0.98438 1.0469 0.30469 1.168 0.76172 2.2539 1.3555 3.2227 0.27344 0.44141 0.29688 0.99609 0.0625 1.4609l-0.75781 1.4961 2.3984 2.3984 1.4648-0.75c0.44922-0.23047 0.98828-0.21875 1.4336 0.035156 1.0391 0.59766 2.1445 1.0547 3.2891 1.3516 0.49219 0.12891 0.88672 0.5 1.0469 0.98438l0.51562 1.5703h3.3945l0.49219-1.5586c0.15234-0.48828 0.54688-0.86719 1.0469-0.99609zm-3.25-2.4648c-5.5156 0-10.004-4.5-10.004-10.031 0-5.5156 4.4883-10.004 10.004-10.004s10.004 4.4883 10.004 10.004c0 5.5312-4.4844 10.031-10.004 10.031zm7.0039-10.031c0-3.8633-3.1406-7.0039-7.0039-7.0039-3.8633 0-7.0039 3.1406-7.0039 7.0039 0 3.8789 3.1406 7.0312 7.0039 7.0312 3.8633 0 7.0039-3.1562 7.0039-7.0312zm42.008 0c0 4.0156-3.2656 7.2812-7.2812 7.2812h-8.5664c-0.87109 3.9805-2.4414 7.6953-4.5742 11.02l6.0625 6.0625c2.8359 2.8359 2.8359 7.4492 0 10.285-1.3594 1.3789-3.1875 2.1406-5.1445 2.1406-1.9531 0-3.7812-0.76172-5.1484-2.1484l-6.0469-6.0469c-3.3281 2.1406-7.0469 3.7188-11.027 4.5938v8.5391c0 4.0156-3.2695 7.2812-7.2812 7.2812-4.0156 0-7.2812-3.2656-7.2812-7.2812v-8.5352c-3.9805-0.875-7.7031-2.4492-11.027-4.5938l-6.0547 6.0547c-1.3594 1.3789-3.1875 2.1406-5.1445 2.1406-1.9531 0-3.7812-0.76172-5.1484-2.1484-2.8281-2.8281-2.8281-7.4414 0.007812-10.277l6.0625-6.0625c-2.1328-3.3242-3.7031-7.043-4.5742-11.02h-8.5703c-4.0156 0-7.2812-3.2695-7.2812-7.2812 0-4 3.2695-7.2539 7.2812-7.2539h8.5586c0.87109-3.9805 2.4414-7.6992 4.5742-11.027l-6.0586-6.0586c-2.8359-2.8359-2.8359-7.4492 0-10.285 1.3594-1.3789 3.1875-2.1406 5.1445-2.1406 1.9531 0 3.7812 0.76172 5.1484 2.1445l6.0586 6.0352c3.3242-2.1367 7.0391-3.707 11.02-4.582v-8.5352c0-4.0156 3.2656-7.2812 7.2812-7.2812s7.2812 3.2695 7.2812 7.2812v8.5352c3.9766 0.87109 7.6914 2.4453 11.016 4.582l6.0664-6.043c1.3594-1.375 3.1875-2.1367 5.1406-2.1367s3.7812 0.76172 5.1484 2.1445c2.8281 2.8281 2.8281 7.4414-0.007813 10.277l-6.0586 6.0586c2.1328 3.3281 3.7031 7.0469 4.5742 11.027h8.5586c4.0234 0 7.293 3.2539 7.293 7.2539zm-82.703 4.2852c-0.019532-0.14062-0.023438-0.28516-0.039063-0.42969-0.042969-0.38281-0.078125-0.76953-0.10547-1.1523-0.019531-0.24609-0.042968-0.49609-0.058594-0.74609-0.035156-0.64844-0.0625-1.3008-0.0625-1.9531 0-0.65625 0.023438-1.3125 0.0625-1.9609 0.011719-0.21875 0.03125-0.4375 0.050782-0.65625 0.03125-0.42969 0.070312-0.85547 0.11719-1.2773 0.015625-0.11719 0.019531-0.24219 0.035157-0.35938l-8.0352-0.003906c-2.3594 0-4.2812 1.9062-4.2812 4.2539 0 2.3594 1.9219 4.2812 4.2812 4.2812zm54.496-31.125c0.23047 0.17969 0.44141 0.37109 0.66797 0.55469 0.089844 0.070312 0.17969 0.14453 0.26562 0.21875 0.36719 0.30859 0.73047 0.61719 1.0859 0.9375 0.003907 0.003906 0.003907 0.003906 0.007813 0.007812 0.78516 0.71484 1.5352 1.4648 2.2461 2.2422 0.019531 0.023437 0.042969 0.046875 0.0625 0.066406 0.3125 0.34375 0.61328 0.69531 0.91406 1.0547 0.09375 0.11328 0.1875 0.22656 0.28125 0.34375 0.17188 0.21094 0.35547 0.41406 0.51953 0.63281l5.6797-5.6797c1.6641-1.6641 1.6641-4.3789 0-6.043-0.80469-0.81641-1.875-1.2617-3.0195-1.2617s-2.2148 0.44531-3.0156 1.2539zm-25.086-6.8555c0.15234-0.019531 0.30859-0.027343 0.46484-0.042968 0.35547-0.039063 0.71094-0.070313 1.0664-0.10156 0.26953-0.019531 0.53516-0.046875 0.80859-0.0625 0.64453-0.035156 1.2891-0.058593 1.9414-0.058593s1.3047 0.023437 1.9492 0.058593c0.26563 0.015625 0.52734 0.039063 0.78906 0.0625 0.36328 0.027344 0.72266 0.058594 1.082 0.10156 0.15234 0.015625 0.3125 0.023437 0.46484 0.042968v-8.0039c0-2.3594-1.9219-4.2812-4.2812-4.2812s-4.2812 1.9219-4.2812 4.2812zm-22.57 12.914c0.16406-0.21484 0.34766-0.41797 0.51953-0.62891 0.09375-0.11328 0.1875-0.23047 0.28516-0.34375 0.29688-0.35547 0.59766-0.70312 0.90625-1.0469 0.027343-0.03125 0.054687-0.058594 0.082031-0.089844 0.6875-0.75391 1.4102-1.4766 2.1719-2.1719 0.023437-0.023437 0.050781-0.046875 0.074219-0.070313 0.34375-0.3125 0.69531-0.61328 1.0508-0.91016 0.10156-0.085937 0.20312-0.17188 0.30469-0.25391 0.21875-0.17969 0.42578-0.36719 0.64844-0.53906l-5.6836-5.6602c-0.80859-0.81641-1.8789-1.2617-3.0234-1.2617s-2.2148 0.44531-3.0156 1.2539c-1.6719 1.6719-1.6719 4.3828-0.007813 6.0508zm6.0469 47.629c-0.16016-0.125-0.3125-0.26172-0.47266-0.39062-0.20312-0.16406-0.40234-0.32812-0.60156-0.49609-0.31641-0.26953-0.63281-0.53516-0.9375-0.8125-0.003907-0.003906-0.011719-0.011718-0.015626-0.015624-1.4688-1.3281-2.8164-2.7695-4.0195-4.3242l-5.6797 5.6797c-1.6641 1.668-1.6641 4.3789 0 6.043 0.80469 0.81641 1.875 1.2617 3.0195 1.2617s2.2148-0.44531 3.0156-1.2539zm25.09 6.8633c-0.058594 0.007813-0.10938 0.007813-0.16797 0.015626-0.58594 0.070312-1.1758 0.12891-1.7695 0.16797-0.10938 0.007813-0.22656 0.019532-0.33594 0.023438-0.62109 0.035156-1.2422 0.058594-1.8711 0.0625h-0.26953c-0.63281-0.003906-1.2578-0.023438-1.8789-0.0625-0.10938-0.007813-0.22266-0.019532-0.32812-0.023438-0.59766-0.039062-1.1875-0.097656-1.7773-0.16797-0.054687-0.007813-0.10937-0.007813-0.16406-0.015626v8.0156c0 2.3594 1.9219 4.2812 4.2812 4.2812s4.2812-1.9219 4.2812-4.2812l-0.003906-8.0156zm22.566-12.902c-1.4609 1.8906-3.1367 3.6094-4.9883 5.1641-0.1875 0.16016-0.37891 0.31641-0.57031 0.47266-0.16406 0.13281-0.32031 0.27344-0.48828 0.40234l5.6797 5.6836c0.80469 0.81641 1.875 1.2617 3.0195 1.2617s2.2148-0.44531 3.0156-1.2539c1.6719-1.6719 1.6719-4.3828 0.007813-6.0508zm4.1055-20.809c0-0.50781-0.015625-1.0117-0.039063-1.5117-0.007812-0.13672-0.019531-0.26953-0.027343-0.40234-0.023438-0.37109-0.050781-0.74219-0.085938-1.1133-0.015625-0.14453-0.03125-0.28516-0.050781-0.43359-0.039062-0.35156-0.082031-0.69922-0.13281-1.0469-0.023438-0.16797-0.050782-0.33203-0.078126-0.49609-0.77734-4.7578-2.6445-9.1523-5.3359-12.926-0.39062-0.55078-0.79688-1.0898-1.2266-1.6133-0.18359-0.22656-0.375-0.44141-0.5625-0.66016-0.36719-0.42969-0.75391-0.84766-1.1484-1.2578-0.23047-0.23828-0.46094-0.47656-0.69922-0.70703-0.41797-0.40625-0.84766-0.80078-1.2891-1.1875-0.24609-0.21484-0.48828-0.42578-0.74219-0.63281-0.42188-0.34766-0.86328-0.67969-1.3086-1.0078-3.9023-2.8555-8.4922-4.8242-13.473-5.5977-0.03125-0.003906-0.0625-0.011719-0.097656-0.015625-0.44141-0.066406-0.88672-0.12109-1.3359-0.17188-0.085937-0.007813-0.17187-0.019531-0.25781-0.027344-0.36719-0.035156-0.73828-0.0625-1.1094-0.085937-0.16016-0.011719-0.31641-0.023438-0.47656-0.03125-0.32031-0.015625-0.64453-0.019532-0.97266-0.023438-0.34375-0.003906-0.68359-0.003906-1.0273 0-0.32422 0.007813-0.65234 0.011719-0.97656 0.023438-0.15625 0.007812-0.3125 0.019531-0.46875 0.03125-0.37109 0.023437-0.74609 0.050781-1.1133 0.085937-0.085938 0.007813-0.17188 0.019531-0.25781 0.027344-0.44531 0.046875-0.89062 0.10156-1.3281 0.17188-0.039062 0.003906-0.074219 0.011719-0.11328 0.019531-4.9727 0.77344-9.5547 2.7383-13.453 5.5859-0.46094 0.33984-0.91406 0.68359-1.3516 1.0391-0.23828 0.19531-0.47266 0.39844-0.70312 0.60156-0.44531 0.39062-0.88281 0.78516-1.3047 1.1953-0.23438 0.23047-0.46484 0.46484-0.69141 0.69922-0.39453 0.41016-0.77734 0.82812-1.1484 1.2617-0.1875 0.21875-0.37891 0.4375-0.5625 0.66406-0.42578 0.52344-0.83594 1.0625-1.2227 1.6094-2.6875 3.7695-4.5586 8.1641-5.3359 12.926-0.027343 0.16797-0.054687 0.33984-0.078124 0.50781-0.050782 0.33594-0.089844 0.67578-0.12891 1.0156-0.019531 0.15234-0.035156 0.30859-0.050781 0.46484-0.035156 0.35547-0.0625 0.71875-0.082031 1.0781-0.007813 0.14453-0.019531 0.28516-0.027344 0.42969-0.023437 0.5-0.039063 1-0.039063 1.5078 0 0.51172 0.015626 1.0195 0.039063 1.5273 0.003906 0.10547 0.015625 0.21094 0.019531 0.31641 0.023438 0.41406 0.054688 0.82422 0.09375 1.2344 0.007813 0.085937 0.019532 0.17188 0.027344 0.25781 0.046875 0.43359 0.10156 0.85938 0.16406 1.2891 0.011719 0.070312 0.019532 0.14062 0.03125 0.21094 0.76953 4.9023 2.6992 9.4258 5.4883 13.285 0.28516 0.39453 0.58203 0.78516 0.88672 1.168 0.30078 0.37891 0.60938 0.74609 0.92969 1.1094 0.28125 0.32031 0.57031 0.64062 0.86719 0.94922 0.30469 0.31641 0.60937 0.62891 0.92578 0.93359 0.41016 0.39453 0.82812 0.77734 1.2617 1.1523 0.16406 0.14453 0.32812 0.28906 0.49609 0.43359 0.59375 0.48828 1.2109 0.95703 1.8438 1.4062 3.7695 2.6797 8.1523 4.5352 12.902 5.3086 0.21484 0.03125 0.42969 0.066406 0.63672 0.097656 0.19141 0.027344 0.38281 0.050782 0.57422 0.074219 0.30078 0.035156 0.60156 0.070313 0.89453 0.10156 0.29688 0.027343 0.58984 0.050781 0.88672 0.066406 0.15234 0.011718 0.30859 0.023437 0.46484 0.03125 0.50391 0.023437 1.0078 0.039062 1.5156 0.039062 0.50781 0 1.0117-0.015625 1.5156-0.039062 0.15234-0.007813 0.3125-0.019532 0.46484-0.03125 0.29688-0.019532 0.59375-0.039063 0.88672-0.066406 0.29688-0.027344 0.59375-0.0625 0.89453-0.10156 0.19531-0.023437 0.39062-0.046875 0.58203-0.074219 0.20703-0.027344 0.42188-0.0625 0.63281-0.09375 4.7539-0.77344 9.1484-2.6328 12.918-5.3164 0.62891-0.44531 1.2383-0.91016 1.8242-1.3945 0.17578-0.14453 0.33984-0.29688 0.51172-0.44141 0.42578-0.36719 0.83984-0.75 1.2461-1.1406 0.31641-0.30859 0.62891-0.62109 0.93359-0.94141 0.29687-0.30859 0.58594-0.625 0.86719-0.94531 0.31641-0.36328 0.62891-0.73047 0.92969-1.1094 0.30469-0.38281 0.60156-0.76953 0.88672-1.168 2.7891-3.8594 4.7188-8.3867 5.4883-13.293 0.011719-0.0625 0.019532-0.12891 0.03125-0.19531 0.066407-0.4375 0.12109-0.875 0.16797-1.3164 0.007813-0.074219 0.019531-0.14844 0.023438-0.22266 0.042969-0.42188 0.070312-0.84375 0.097656-1.2695 0.003906-0.097656 0.015625-0.19141 0.019531-0.28906 0.03125-0.51172 0.042969-1.0273 0.042969-1.5391zm15.055 0c0-2.3477-1.9219-4.2539-4.2812-4.2539h-8.0352c0.015625 0.11719 0.019532 0.24219 0.035156 0.35938 0.046876 0.42188 0.085938 0.84375 0.11719 1.2695 0.015625 0.22266 0.039062 0.44141 0.050781 0.66406 0.035157 0.64844 0.0625 1.3008 0.0625 1.9609 0 0.65625-0.023437 1.3047-0.058593 1.9492-0.015626 0.26172-0.039063 0.51953-0.058594 0.77734-0.027344 0.36719-0.0625 0.73437-0.10156 1.1016-0.015625 0.14844-0.023437 0.30469-0.042969 0.45312h8.0312c2.3594 0.003906 4.2812-1.918 4.2812-4.2812z"/>

  </g><g data-name="business_name" fill="#000000" data="id:269" transform="translate(155.13334355839618, 153.03177802340048) scale(1.0090511462581342)"><path d="M11.2,48.4q-2.68,0-4.83-1.09t-3.4-3.23t-1.25-5.28q0-2.74,1.12-4.91t3.26-3.43t5.22-1.26q2.22,0,3.86,0.72t2.55,1.92t0.91,2.62q0,1.3-0.81,2.04t-1.95,0.74q-0.66,0-1.32-0.29t-1.11-0.9t-0.45-1.55q0-1.28,0.87-1.98t2.01-0.7q1.08,0,1.9,0.68t0.82,1.96l-0.46,0q0-1.08-0.54-1.94t-1.41-1.47t-1.92-0.93t-2.07-0.32q-1.56,0-2.52,0.86t-1.46,2.23t-0.68,2.93t-0.18,2.98q0,1.72,0.21,3.31t0.73,2.83t1.46,1.97t2.38,0.73q1.64,0,2.84-0.66t2.03-1.83t1.33-2.67l0.54,0q-0.78,2.6-2.6,4.26t-5.08,1.66z M31.98,48.4q-2.94,0-5.07-1.32t-3.29-3.5t-1.16-4.78t1.16-4.78t3.29-3.5t5.07-1.32t5.07,1.32t3.29,3.5t1.16,4.78t-1.16,4.78t-3.29,3.5t-5.07,1.32z M31.98,47.9q1.32,0,2.16-0.79t1.3-2.12t0.64-2.95t0.18-3.24q0-1.64-0.18-3.25t-0.64-2.94t-1.3-2.12t-2.16-0.79t-2.15,0.79t-1.3,2.12t-0.65,2.94t-0.18,3.25q0,1.62,0.18,3.24t0.65,2.95t1.3,2.12t2.15,0.79z M51.68,29.6l0,17.9l2.24,0l0,0.5l-9.62,0l0-0.5l2.62,0l0-17.4l-2.62,0l0-0.5l7.38,0z M63.88,35.22l0,12.28l2.62,0l0,0.5l-9.62,0l0-0.5l2.24,0l0-11.88q0-1.68-0.15-2.86t-0.6-1.79t-1.39-0.61q-1.5,0-2.52,0.84t-1.63,2.17t-0.88,2.84t-0.27,2.85l-0.36,0.1q0-1.42,0.27-3.13t1.01-3.26t2.11-2.56t3.55-1.01q2.3,0,3.51,0.78t1.66,2.14t0.45,3.1z M75.44,48.28q-1.82,0-2.75-0.68t-1.26-1.78t-0.33-2.38l0-17.84q1.18,0,2.56-0.34t2.24-0.86l0,20.06q0,1.5,0.36,2.08t1.18,0.58q0.96,0,1.94-0.88t1.56-2.24l0.44,0.22q-0.76,1.8-2.23,2.93t-3.71,1.13z M68.28,30.1l0-0.5l11.9,0l0,0.5l-11.9,0z M90,39.32q0-1.94,0.3-3.75t0.98-3.24t1.79-2.27t2.69-0.84q1.28,0,2.17,0.53t1.35,1.38t0.46,1.81q0,1.24-0.79,2.14t-2.11,0.9q-1.34,0-2.15-0.79t-0.81-1.91q0-1.34,0.86-2.13t2.08-0.79q0.82,0,1.48,0.36t1.03,0.95t0.37,1.27l-0.48,0q0-0.84-0.43-1.58t-1.22-1.19t-1.87-0.45q-1.38,0-2.4,0.78t-1.68,2.14t-0.99,3.08t-0.33,3.6l-0.3,0z M90.3,29.6l0,17.9l2.88,0l0,0.5l-10.26,0l0-0.5l2.62,0l0-17.4l-2.62,0l0-0.5l7.38,0z M111.8,48.4q-2.94,0-5.07-1.32t-3.29-3.5t-1.16-4.78t1.16-4.78t3.29-3.5t5.07-1.32t5.07,1.32t3.29,3.5t1.16,4.78t-1.16,4.78t-3.29,3.5t-5.07,1.32z M111.8,47.9q1.32,0,2.16-0.79t1.3-2.12t0.64-2.95t0.18-3.24q0-1.64-0.18-3.25t-0.64-2.94t-1.3-2.12t-2.16-0.79t-2.15,0.79t-1.3,2.12t-0.65,2.94t-0.18,3.25q0,1.62,0.18,3.24t0.65,2.95t1.3,2.12t2.15,0.79z M132.34,18l0,29.5l3.4,0l0,0.5l-11.62,0l0-0.5l3.42,0l0-29l-3.42,0l0-0.5l8.22,0z M143.14,23.64q-1.24,0-2.12-0.88t-0.88-2.12q0-1.26,0.88-2.13t2.12-0.87q1.28,0,2.14,0.87t0.86,2.13t-0.86,2.13t-2.14,0.87z M145.54,29.6l0,17.9l2.6,0l0,0.5l-10.02,0l0-0.5l2.62,0l0-17.4l-2.62,0l0-0.5l7.42,0z M157.74,29.6l0,17.9l2.24,0l0,0.5l-9.62,0l0-0.5l2.62,0l0-17.4l-2.62,0l0-0.5l7.38,0z M169.94,35.22l0,12.28l2.62,0l0,0.5l-9.62,0l0-0.5l2.24,0l0-11.88q0-1.68-0.15-2.86t-0.6-1.79t-1.39-0.61q-1.5,0-2.52,0.84t-1.63,2.17t-0.88,2.84t-0.27,2.85l-0.36,0.1q0-1.42,0.27-3.13t1.01-3.26t2.11-2.56t3.55-1.01q2.3,0,3.51,0.78t1.66,2.14t0.45,3.1z M177.98,48l0-20.46q0-2.74,1.07-5t3.07-3.6t4.82-1.34q1.7,0,2.88,0.67t1.79,1.66t0.61,1.99q0,1.44-0.87,2.2t-1.97,0.76q-0.62,0-1.26-0.27t-1.07-0.86t-0.43-1.53q0-1.28,0.86-1.99t1.84-0.71q0.68,0,1.34,0.29t1.09,0.82t0.43,1.29l-0.46,0q0-1.02-0.6-1.89t-1.65-1.4t-2.35-0.53q-1.64,0-2.62,1.02t-1.41,2.88t-0.43,4.4l0,21.6l-4.68,0z M174.58,48l0-0.5l12.68,0l0,0.5l-12.68,0z M174.58,30.1l0-0.5l13.48,0l0,0.5l-13.48,0z M197.88,39.32q0-1.94,0.3-3.75t0.98-3.24t1.79-2.27t2.69-0.84q1.28,0,2.17,0.53t1.35,1.38t0.46,1.81q0,1.24-0.79,2.14t-2.11,0.9q-1.34,0-2.15-0.79t-0.81-1.91q0-1.34,0.86-2.13t2.08-0.79q0.82,0,1.48,0.36t1.03,0.95t0.37,1.27l-0.48,0q0-0.84-0.43-1.58t-1.22-1.19t-1.87-0.45q-1.38,0-2.4,0.78t-1.68,2.14t-0.99,3.08t-0.33,3.6l-0.3,0z M198.18,29.6l0,17.9l2.88,0l0,0.5l-10.26,0l0-0.5l2.62,0l0-17.4l-2.62,0l0-0.5l7.38,0z M225.84,48.4q-1.14,0-2.08-0.33t-1.5-1.1t-0.56-2.07l0-9.08q0-1.44-0.25-2.82t-1.04-2.28t-2.39-0.9q-0.92,0-1.95,0.22t-1.93,0.67t-1.46,1.14t-0.56,1.63l-0.58,0q0-1.16,0.84-1.86t1.9-0.7q1.14,0,2.01,0.64t0.87,1.84q0,1.34-0.89,1.99t-1.99,0.65q-1.18,0-1.98-0.67t-0.8-1.89q0-1.04,0.64-1.83t1.7-1.31t2.38-0.79t2.68-0.27q2.94,0,4.58,0.9t2.31,2.39t0.67,3.25l0,9.96q0,0.68,0.28,1.15t1.06,0.47q0.54,0,1.29-0.48t1.19-1.4l0.28,0.36q-0.54,1.16-1.8,1.84t-2.92,0.68z M215.8,48.4q-2.6,0-4.15-1.33t-1.55-3.61q0-2.68,2.3-4.17t6.56-1.49l4.6,0l0,0.44l-3.8,0q-1.62,0-2.59,0.77t-1.4,1.87t-0.43,2.14q0,0.98,0.25,1.87t0.81,1.46t1.46,0.57q1,0,1.87-0.66t1.42-2.03t0.55-3.49l0.32,0q0,2.32-0.71,4.04t-2.09,2.67t-3.42,0.95z"/></g><g data-name="slogan" fill="#000000" data="id:304" transform="translate(156.11423930087741, 203.43962741065312) scale(0.46016590171595645)"><path d="M12.36,48.32q-3.2,0-6.12-0.98t-4.6-2.54l1.48-3.12q1.6,1.4,4.08,2.32t5.16,0.92q2.44,0,3.96-0.56t2.24-1.54t0.72-2.22q0-1.44-0.94-2.32t-2.44-1.42t-3.3-0.94t-3.62-0.94t-3.32-1.38t-2.42-2.26t-0.92-3.66q0-2.16,1.14-3.98t3.52-2.92t6.06-1.1q2.44,0,4.84,0.64t4.16,1.84l-1.32,3.2q-1.8-1.2-3.8-1.74t-3.88-0.54q-2.36,0-3.88,0.6t-2.22,1.6t-0.7,2.24q0,1.48,0.94,2.36t2.44,1.4t3.3,0.94t3.62,0.94t3.32,1.36t2.42,2.24t0.92,3.6q0,2.12-1.16,3.94t-3.58,2.92t-6.1,1.1z M37.92,48.24q-3.4,0-5.98-1.4t-4-3.84t-1.42-5.6t1.38-5.6t3.8-3.82t5.46-1.38q3.08,0,5.44,1.36t3.7,3.82t1.34,5.74q0,0.24-0.02,0.56t-0.06,0.6l-18.04,0l0-2.76l16.04,0l-1.56,0.96q0.04-2.04-0.84-3.64t-2.42-2.5t-3.58-0.9q-2,0-3.56,0.9t-2.44,2.52t-0.88,3.7l0,0.64q0,2.12,0.98,3.78t2.74,2.58t4.04,0.92q1.88,0,3.42-0.64t2.7-1.92l2.12,2.48q-1.44,1.68-3.58,2.56t-4.78,0.88z M62.2,48.24q-3.24,0-5.78-1.4t-3.98-3.84t-1.44-5.6t1.44-5.6t3.98-3.82t5.78-1.38q2.88,0,5.14,1.14t3.5,3.38l-2.92,1.88q-1.04-1.56-2.54-2.3t-3.22-0.74q-2.08,0-3.72,0.92t-2.6,2.58t-0.96,3.94t0.96,3.96t2.6,2.6t3.72,0.92q1.72,0,3.22-0.74t2.54-2.3l2.92,1.84q-1.24,2.2-3.5,3.38t-5.14,1.18z M84.72,48.24q-2.72,0-4.78-1t-3.2-3.06t-1.14-5.18l0-12.2l3.84,0l0,11.76q0,3.12,1.5,4.68t4.22,1.56q2,0,3.48-0.82t2.28-2.4t0.8-3.82l0-10.96l3.84,0l0,21.2l-3.64,0l0-5.72l0.6,1.52q-1.04,2.12-3.12,3.28t-4.68,1.16z M102.88,48l0-21.2l3.68,0l0,5.76l-0.36-1.44q0.88-2.2,2.96-3.36t5.12-1.16l0,3.72q-0.24-0.04-0.46-0.04l-0.42,0q-3.08,0-4.88,1.84t-1.8,5.32l0,10.56l-3.84,0z M128.72,48.24q-3.4,0-5.98-1.4t-4-3.84t-1.42-5.6t1.38-5.6t3.8-3.82t5.46-1.38q3.08,0,5.44,1.36t3.7,3.82t1.34,5.74q0,0.24-0.02,0.56t-0.06,0.6l-18.04,0l0-2.76l16.04,0l-1.56,0.96q0.04-2.04-0.84-3.64t-2.42-2.5t-3.58-0.9q-2,0-3.56,0.9t-2.44,2.52t-0.88,3.7l0,0.64q0,2.12,0.98,3.78t2.74,2.58t4.04,0.92q1.88,0,3.42-0.64t2.7-1.92l2.12,2.48q-1.44,1.68-3.58,2.56t-4.78,0.88z M144.68,48.24q-1.12,0-1.92-0.78t-0.8-1.98t0.8-1.96t1.92-0.76q1.08,0,1.86,0.76t0.78,1.96t-0.78,1.98t-1.86,0.78z  M164.16,48l0-28l3.28,0l12.56,21.16l-1.76,0l12.4-21.16l3.28,0l0.04,28l-3.84,0l-0.04-21.96l0.92,0l-11.04,18.56l-1.84,0l-11.12-18.56l1,0l0,21.96l-3.84,0z M214.96,48l0-4.48l-0.2-0.84l0-7.64q0-2.44-1.42-3.78t-4.26-1.34q-1.88,0-3.68,0.62t-3.04,1.66l-1.6-2.88q1.64-1.32,3.94-2.02t4.82-0.7q4.36,0,6.72,2.12t2.36,6.48l0,12.8l-3.64,0z M208,48.24q-2.36,0-4.14-0.8t-2.74-2.22t-0.96-3.22q0-1.72,0.82-3.12t2.68-2.24t5.02-0.84l6.72,0l0,2.76l-6.56,0q-2.88,0-3.88,0.96t-1,2.32q0,1.56,1.24,2.5t3.44,0.94q2.16,0,3.78-0.96t2.34-2.8l0.76,2.64q-0.76,1.88-2.68,2.98t-4.84,1.1z M237.04,26.6q2.6,0,4.58,1t3.1,3.04t1.12,5.16l0,12.2l-3.84,0l0-11.76q0-3.08-1.5-4.64t-4.22-1.56q-2.04,0-3.56,0.8t-2.34,2.36t-0.82,3.88l0,10.92l-3.84,0l0-21.2l3.68,0l0,5.72l-0.6-1.52q1.04-2.08,3.2-3.24t5.04-1.16z M266.12,48l0-4.48l-0.2-0.84l0-7.64q0-2.44-1.42-3.78t-4.26-1.34q-1.88,0-3.68,0.62t-3.04,1.66l-1.6-2.88q1.64-1.32,3.94-2.02t4.82-0.7q4.36,0,6.72,2.12t2.36,6.48l0,12.8l-3.64,0z M259.16,48.24q-2.36,0-4.14-0.8t-2.74-2.22t-0.96-3.22q0-1.72,0.82-3.12t2.68-2.24t5.02-0.84l6.72,0l0,2.76l-6.56,0q-2.88,0-3.88,0.96t-1,2.32q0,1.56,1.24,2.5t3.44,0.94q2.16,0,3.78-0.96t2.34-2.8l0.76,2.64q-0.76,1.88-2.68,2.98t-4.84,1.1z M286.16,56q-2.92,0-5.66-0.82t-4.46-2.34l1.84-2.96q1.48,1.28,3.64,2.02t4.52,0.74q3.76,0,5.52-1.76t1.76-5.36l0-4.48l0.4-4.2l-0.2-4.24l0-5.8l3.64,0l0,18.32q0,5.6-2.8,8.24t-8.2,2.64z M285.68,47.12q-3.08,0-5.5-1.3t-3.84-3.62t-1.42-5.36q0-3.08,1.42-5.38t3.84-3.58t5.5-1.28q2.72,0,4.96,1.1t3.58,3.38t1.34,5.76q0,3.44-1.34,5.72t-3.58,3.42t-4.96,1.14z M286.12,43.76q2.12,0,3.76-0.88t2.58-2.44t0.94-3.6t-0.94-3.6t-2.58-2.42t-3.76-0.86t-3.78,0.86t-2.6,2.42t-0.94,3.6t0.94,3.6t2.6,2.44t3.78,0.88z M313.92,48.24q-3.4,0-5.98-1.4t-4-3.84t-1.42-5.6t1.38-5.6t3.8-3.82t5.46-1.38q3.08,0,5.44,1.36t3.7,3.82t1.34,5.74q0,0.24-0.02,0.56t-0.06,0.6l-18.04,0l0-2.76l16.04,0l-1.56,0.96q0.04-2.04-0.84-3.64t-2.42-2.5t-3.58-0.9q-2,0-3.56,0.9t-2.44,2.52t-0.88,3.7l0,0.64q0,2.12,0.98,3.78t2.74,2.58t4.04,0.92q1.88,0,3.42-0.64t2.7-1.92l2.12,2.48q-1.44,1.68-3.58,2.56t-4.78,0.88z M329.88,48.24q-1.12,0-1.92-0.78t-0.8-1.98t0.8-1.96t1.92-0.76q1.08,0,1.86,0.76t0.78,1.96t-0.78,1.98t-1.86,0.78z  M361.88,48.32q-3.2,0-5.9-1.06t-4.68-3t-3.1-4.54t-1.12-5.72t1.12-5.72t3.12-4.54t4.7-3t5.9-1.06q3.24,0,5.98,1.1t4.66,3.26l-2.6,2.52q-1.6-1.68-3.6-2.5t-4.28-0.82q-2.36,0-4.38,0.8t-3.5,2.24t-2.3,3.42t-0.82,4.3t0.82,4.3t2.3,3.42t3.5,2.24t4.38,0.8q2.28,0,4.28-0.82t3.6-2.54l2.6,2.52q-1.92,2.16-4.66,3.28t-6.02,1.12z M386.8,48.24q-3.2,0-5.68-1.4t-3.92-3.86t-1.44-5.58q0-3.16,1.44-5.6t3.92-3.82t5.68-1.38q3.16,0,5.66,1.38t3.92,3.8t1.42,5.62q0,3.16-1.42,5.6t-3.92,3.84t-5.66,1.4z M386.8,44.88q2.04,0,3.66-0.92t2.54-2.62t0.92-3.94q0-2.28-0.92-3.94t-2.54-2.58t-3.66-0.92t-3.64,0.92t-2.56,2.58t-0.96,3.94q0,2.24,0.96,3.94t2.56,2.62t3.64,0.92z M414.44,26.6q2.6,0,4.58,1t3.1,3.04t1.12,5.16l0,12.2l-3.84,0l0-11.76q0-3.08-1.5-4.64t-4.22-1.56q-2.04,0-3.56,0.8t-2.34,2.36t-0.82,3.88l0,10.92l-3.84,0l0-21.2l3.68,0l0,5.72l-0.6-1.52q1.04-2.08,3.2-3.24t5.04-1.16z M437.64,48.24q-3.2,0-4.96-1.72t-1.76-4.92l0-19.44l3.84,0l0,19.28q0,1.72,0.86,2.64t2.46,0.92q1.8,0,3-1l1.2,2.76q-0.88,0.76-2.1,1.12t-2.54,0.36z M427.32,29.96l0-3.16l13.52,0l0,3.16l-13.52,0z M446.92,48l0-21.2l3.68,0l0,5.76l-0.36-1.44q0.88-2.2,2.96-3.36t5.12-1.16l0,3.72q-0.24-0.04-0.46-0.04l-0.42,0q-3.08,0-4.88,1.84t-1.8,5.32l0,10.56l-3.84,0z M472.4,48.24q-3.2,0-5.68-1.4t-3.92-3.86t-1.44-5.58q0-3.16,1.44-5.6t3.92-3.82t5.68-1.38q3.16,0,5.66,1.38t3.92,3.8t1.42,5.62q0,3.16-1.42,5.6t-3.92,3.84t-5.66,1.4z M472.4,44.88q2.04,0,3.66-0.92t2.54-2.62t0.92-3.94q0-2.28-0.92-3.94t-2.54-2.58t-3.66-0.92t-3.64,0.92t-2.56,2.58t-0.96,3.94q0,2.24,0.96,3.94t2.56,2.62t3.64,0.92z M488.72,48l0-29.68l3.84,0l0,29.68l-3.84,0z M500.8,48.24q-1.12,0-1.92-0.78t-0.8-1.98t0.8-1.96t1.92-0.76q1.08,0,1.86,0.76t0.78,1.96t-0.78,1.98t-1.86,0.78z"/></g></svg>