<svg xmlns="http://www.w3.org/2000/svg" xmlns:xlink="http://www.w3.org/1999/xlink" width="400" height="400" viewBox="0 0 400 400"><defs><linearGradient id="gradient-8" x1="0%" y1="0%" x2="100%" y2="0%">       <stop offset="0%" stop-color="#ad5389"/>       <stop offset="100%" stop-color="#3c1053"/>     </linearGradient></defs><g data-name="icon" fill="#a4e5d9" data="id:7454926" transform="translate(36.7180627458791, 36.718258954734694) scale(3.26571265041803)">
  
 <path d="m74.699 53.301c-1.3047 9.7773-8.2773 17.758-17.516 20.539l0.76562 0.44531c0.71875 0.41406 0.96094 1.332 0.54688 2.0508-0.27734 0.48047-0.78125 0.74609-1.3008 0.74609-0.25781 0-0.51562-0.066406-0.75-0.20312l-4.1094-2.3828c-0.078126-0.046875-0.14844-0.10156-0.21484-0.15625-0.007813-0.007813-0.015625-0.007813-0.019532-0.015625-0.12109-0.10938-0.22266-0.23438-0.30078-0.37109-0.011719-0.019531-0.023437-0.039063-0.035156-0.058594-0.074219-0.14453-0.12109-0.29688-0.14844-0.45703-0.003907-0.015625-0.011719-0.027344-0.015626-0.039062-0.003906-0.015626 0-0.03125-0.003906-0.050782-0.003906-0.050781-0.003906-0.10156-0.003906-0.15234 0-0.046874 0-0.097656 0.003906-0.14453s0.015625-0.09375 0.023438-0.14062c0.011718-0.050781 0.019531-0.10156 0.035156-0.14844 0.011719-0.042969 0.03125-0.082031 0.046875-0.125 0.019531-0.050781 0.042969-0.10156 0.066406-0.14844 0.007813-0.015625 0.011719-0.027343 0.019531-0.039062l2.3828-4.1094c0.41406-0.71875 1.3359-0.96094 2.0508-0.54688 0.71875 0.41406 0.96094 1.332 0.54688 2.0508l-0.6875 1.1875c8.2422-2.3789 14.492-9.4414 15.648-18.129 0.10938-0.82031 0.86719-1.3945 1.6875-1.2891 0.8125 0.10938 1.3906 0.86719 1.2812 1.6875zm-48.117-4.918c0.066407 0.007813 0.13281 0.011719 0.19922 0.011719 0.73828 0 1.3867-0.54688 1.4844-1.3008 1.1562-8.6875 7.4062-15.746 15.648-18.129l-0.6875 1.1875c-0.41406 0.71875-0.17187 1.6367 0.54688 2.0508 0.23437 0.13672 0.49609 0.20312 0.75 0.20312 0.51953 0 1.0195-0.26953 1.3008-0.74609l2.3828-4.1094c0.007813-0.015625 0.011719-0.027343 0.019531-0.039062 0.023438-0.046875 0.046876-0.097657 0.066407-0.14453 0.019531-0.039063 0.035156-0.082032 0.046875-0.12109 0.015625-0.050782 0.023437-0.10156 0.035156-0.15625 0.007812-0.042969 0.019531-0.085938 0.023438-0.13281 0.003906-0.050781 0.003906-0.10156 0.003906-0.15234 0-0.046876 0-0.097657-0.003906-0.14453-0.003907-0.019531 0-0.035156-0.003907-0.054687-0.003906-0.035157-0.015625-0.0625-0.023437-0.097657-0.007813-0.03125-0.007813-0.0625-0.015625-0.089843-0.003907-0.011719-0.011719-0.015625-0.011719-0.027344-0.050781-0.17188-0.12891-0.32422-0.22656-0.46484-0.015626-0.019531-0.027344-0.039062-0.042969-0.058593-0.10547-0.13281-0.23438-0.24609-0.38281-0.33594-0.011718-0.007812-0.019531-0.019531-0.03125-0.027344l-4.1094-2.3828c-0.71875-0.41406-1.6328-0.17188-2.0508 0.54688-0.41406 0.71875-0.17188 1.6367 0.54688 2.0508l0.76562 0.44141c-9.2344 2.7852-16.211 10.762-17.516 20.539-0.11328 0.82031 0.46484 1.5742 1.2852 1.6836zm20.523 23.328c-8.7031-1.1562-15.777-7.4023-18.16-15.645l1.1992 0.6875c0.71484 0.41016 1.6367 0.16406 2.0469-0.55859 0.41016-0.71875 0.16016-1.6367-0.55859-2.0469l-4.1094-2.3555c-0.019532-0.011719-0.035157-0.015625-0.054688-0.023438-0.03125-0.015625-0.0625-0.027343-0.09375-0.042969-0.0625-0.027343-0.12109-0.050781-0.18359-0.070312-0.027344-0.007812-0.054687-0.011719-0.085937-0.019531-0.066407-0.015625-0.13281-0.027344-0.19922-0.035157-0.035156-0.003906-0.066406-0.003906-0.10547-0.003906-0.0625 0-0.12109 0-0.18359 0.007813h-0.039063c-0.03125 0.003906-0.058594 0.015625-0.085937 0.019531-0.054688 0.011719-0.10547 0.019531-0.15625 0.035156-0.046876 0.015625-0.089844 0.03125-0.13281 0.050782-0.046875 0.019531-0.089844 0.039062-0.13281 0.0625-0.042968 0.023437-0.082031 0.050781-0.125 0.074218-0.039062 0.027344-0.078124 0.054688-0.11719 0.085938s-0.074219 0.066406-0.10938 0.10156c-0.03125 0.035156-0.066406 0.066406-0.097656 0.10547-0.035156 0.042969-0.0625 0.085937-0.09375 0.13281-0.015625 0.023437-0.035156 0.046874-0.050782 0.070312l-2.3516 4.082c-0.41406 0.71875-0.16797 1.6367 0.55078 2.0508 0.23438 0.13672 0.49219 0.19922 0.74609 0.19922 0.51953 0 1.0234-0.26953 1.3008-0.75l0.41797-0.72656c2.793 9.2188 10.777 16.18 20.562 17.48 0.066406 0.007812 0.13281 0.011718 0.19922 0.011718 0.73828 0 1.3867-0.55078 1.4844-1.3047 0.11719-0.8125-0.46094-1.5664-1.2812-1.6758zm29.207-30.227c-0.71875-0.41016-1.6367-0.16406-2.0469 0.55859l-0.41797 0.73047c-2.7969-9.2109-10.777-16.164-20.562-17.465-0.81641-0.10938-1.5742 0.46875-1.6836 1.2891-0.10937 0.82031 0.46875 1.5742 1.2891 1.6836 8.7031 1.1562 15.777 7.4023 18.16 15.645l-1.1992-0.6875c-0.71875-0.41016-1.6367-0.16406-2.0469 0.55859-0.41016 0.71875-0.16016 1.6367 0.55859 2.0469l4.1094 2.3555c0.046875 0.023437 0.09375 0.035156 0.14062 0.058593 0.042969 0.019532 0.085938 0.039063 0.13281 0.054688 0.15234 0.050781 0.30859 0.085938 0.46484 0.085938h0.003906 0.003906c0.0625 0 0.12891-0.003907 0.19531-0.011719 0.046876-0.007813 0.089844-0.019531 0.13672-0.03125 0.019531-0.003907 0.039063-0.003907 0.0625-0.007813 0.007813-0.003906 0.015625-0.011718 0.023438-0.011718 0.17188-0.050782 0.32812-0.13281 0.46875-0.23438 0.015625-0.011718 0.03125-0.023437 0.046875-0.035156 0.14062-0.10938 0.25391-0.24609 0.34375-0.39453 0.007812-0.011719 0.015625-0.015625 0.023437-0.023437l2.3516-4.1094c0.40625-0.72656 0.15625-1.6445-0.55859-2.0547zm-23.508 26.555h-5.5859c-0.64844 0-1.2266-0.41797-1.4258-1.0352l-0.60547-1.8516c-0.85547-0.27344-1.6914-0.61719-2.4961-1.0273l-1.7344 0.88672c-0.57812 0.30078-1.2812 0.1875-1.7422-0.27344l-3.9414-3.9375c-0.45703-0.45703-0.57031-1.1602-0.27734-1.7383l0.88281-1.7461c-0.41797-0.78516-0.76953-1.6172-1.0469-2.4922l-1.8555-0.60547c-0.61719-0.19922-1.0352-0.77734-1.0352-1.4258v-5.5859c0-0.64844 0.41797-1.2266 1.0352-1.4258l1.8555-0.60547c0.27734-0.87109 0.62891-1.707 1.0469-2.4922l-0.88281-1.7461c-0.29297-0.57812-0.17969-1.2773 0.27734-1.7383l3.9414-3.9414c0.46094-0.46094 1.1641-0.57422 1.7422-0.27344l1.7344 0.88672c0.80859-0.41016 1.6406-0.75781 2.4961-1.0273l0.60547-1.8516c0.19922-0.61719 0.77734-1.0352 1.4258-1.0352h5.5859c0.65234 0 1.2344 0.42578 1.4297 1.0508l0.58203 1.8438c0.85156 0.26953 1.6836 0.61328 2.4844 1.0234l1.7344-0.88672c0.57812-0.29688 1.2852-0.1875 1.7422 0.27344l3.9609 3.9336c0.46484 0.45703 0.57812 1.1641 0.28516 1.7461l-0.89063 1.7578c0.41016 0.79297 0.75391 1.6211 1.0234 2.4805l1.8555 0.60547c0.61719 0.19922 1.0352 0.77734 1.0352 1.4258v5.5859c0 0.64844-0.41797 1.2266-1.0352 1.4258l-1.8555 0.60547c-0.26953 0.85938-0.61328 1.6875-1.0234 2.4805l0.89063 1.7578c0.29297 0.58203 0.17969 1.2852-0.28516 1.7461l-3.9609 3.9336c-0.46094 0.46094-1.1641 0.57031-1.7422 0.27344l-1.7344-0.88672c-0.80469 0.41016-1.6367 0.75391-2.4844 1.0234l-0.58203 1.8438c-0.19922 0.61328-0.77734 1.0391-1.4297 1.0391zm0.44141-5.5586c1.1445-0.30078 2.25-0.75391 3.2891-1.3516 0.44141-0.25391 0.98047-0.26953 1.4336-0.035156l1.4648 0.75 2.4258-2.4062-0.75391-1.4883c-0.23047-0.45703-0.21484-0.99609 0.046875-1.4375 0.58984-1.0039 1.043-2.0977 1.3438-3.2461 0.12891-0.49609 0.5-0.89062 0.98438-1.0469l1.5742-0.51172v-3.4062l-1.5742-0.51562c-0.48438-0.15625-0.85547-0.55469-0.98438-1.0469-0.30078-1.1484-0.75391-2.2422-1.3438-3.2422-0.26172-0.44141-0.27734-0.98047-0.046875-1.4375l0.75391-1.4883-2.4258-2.4062-1.4648 0.75c-0.45312 0.23047-0.98828 0.21875-1.4336-0.035156-1.0391-0.59766-2.1484-1.0547-3.2852-1.3516-0.5-0.12891-0.89844-0.50781-1.0547-1l-0.49219-1.5586h-3.3945l-0.51562 1.5703c-0.15625 0.48438-0.55469 0.85547-1.0469 0.98438-1.1406 0.29687-2.2461 0.75391-3.2852 1.3516-0.44141 0.25781-0.98047 0.26953-1.4336 0.035156l-1.4648-0.75-2.3984 2.3984 0.75781 1.4961c0.23438 0.46484 0.21094 1.0195-0.0625 1.4609-0.59375 0.96875-1.0508 2.0547-1.3555 3.2227-0.12891 0.49219-0.5 0.89062-0.98438 1.0469l-1.5742 0.51562v3.4062l1.5742 0.51172c0.48438 0.15625 0.85547 0.55469 0.98438 1.0469 0.30469 1.168 0.76172 2.2539 1.3555 3.2227 0.27344 0.44141 0.29688 0.99609 0.0625 1.4609l-0.75781 1.4961 2.3984 2.3984 1.4648-0.75c0.44922-0.23047 0.98828-0.21875 1.4336 0.035156 1.0391 0.59766 2.1445 1.0547 3.2891 1.3516 0.49219 0.12891 0.88672 0.5 1.0469 0.98438l0.51562 1.5703h3.3945l0.49219-1.5586c0.15234-0.48828 0.54688-0.86719 1.0469-0.99609zm-3.25-2.4648c-5.5156 0-10.004-4.5-10.004-10.031 0-5.5156 4.4883-10.004 10.004-10.004s10.004 4.4883 10.004 10.004c0 5.5312-4.4844 10.031-10.004 10.031zm7.0039-10.031c0-3.8633-3.1406-7.0039-7.0039-7.0039-3.8633 0-7.0039 3.1406-7.0039 7.0039 0 3.8789 3.1406 7.0312 7.0039 7.0312 3.8633 0 7.0039-3.1562 7.0039-7.0312zm42.008 0c0 4.0156-3.2656 7.2812-7.2812 7.2812h-8.5664c-0.87109 3.9805-2.4414 7.6953-4.5742 11.02l6.0625 6.0625c2.8359 2.8359 2.8359 7.4492 0 10.285-1.3594 1.3789-3.1875 2.1406-5.1445 2.1406-1.9531 0-3.7812-0.76172-5.1484-2.1484l-6.0469-6.0469c-3.3281 2.1406-7.0469 3.7188-11.027 4.5938v8.5391c0 4.0156-3.2695 7.2812-7.2812 7.2812-4.0156 0-7.2812-3.2656-7.2812-7.2812v-8.5352c-3.9805-0.875-7.7031-2.4492-11.027-4.5938l-6.0547 6.0547c-1.3594 1.3789-3.1875 2.1406-5.1445 2.1406-1.9531 0-3.7812-0.76172-5.1484-2.1484-2.8281-2.8281-2.8281-7.4414 0.007812-10.277l6.0625-6.0625c-2.1328-3.3242-3.7031-7.043-4.5742-11.02h-8.5703c-4.0156 0-7.2812-3.2695-7.2812-7.2812 0-4 3.2695-7.2539 7.2812-7.2539h8.5586c0.87109-3.9805 2.4414-7.6992 4.5742-11.027l-6.0586-6.0586c-2.8359-2.8359-2.8359-7.4492 0-10.285 1.3594-1.3789 3.1875-2.1406 5.1445-2.1406 1.9531 0 3.7812 0.76172 5.1484 2.1445l6.0586 6.0352c3.3242-2.1367 7.0391-3.707 11.02-4.582v-8.5352c0-4.0156 3.2656-7.2812 7.2812-7.2812s7.2812 3.2695 7.2812 7.2812v8.5352c3.9766 0.87109 7.6914 2.4453 11.016 4.582l6.0664-6.043c1.3594-1.375 3.1875-2.1367 5.1406-2.1367s3.7812 0.76172 5.1484 2.1445c2.8281 2.8281 2.8281 7.4414-0.007813 10.277l-6.0586 6.0586c2.1328 3.3281 3.7031 7.0469 4.5742 11.027h8.5586c4.0234 0 7.293 3.2539 7.293 7.2539zm-82.703 4.2852c-0.019532-0.14062-0.023438-0.28516-0.039063-0.42969-0.042969-0.38281-0.078125-0.76953-0.10547-1.1523-0.019531-0.24609-0.042968-0.49609-0.058594-0.74609-0.035156-0.64844-0.0625-1.3008-0.0625-1.9531 0-0.65625 0.023438-1.3125 0.0625-1.9609 0.011719-0.21875 0.03125-0.4375 0.050782-0.65625 0.03125-0.42969 0.070312-0.85547 0.11719-1.2773 0.015625-0.11719 0.019531-0.24219 0.035157-0.35938l-8.0352-0.003906c-2.3594 0-4.2812 1.9062-4.2812 4.2539 0 2.3594 1.9219 4.2812 4.2812 4.2812zm54.496-31.125c0.23047 0.17969 0.44141 0.37109 0.66797 0.55469 0.089844 0.070312 0.17969 0.14453 0.26562 0.21875 0.36719 0.30859 0.73047 0.61719 1.0859 0.9375 0.003907 0.003906 0.003907 0.003906 0.007813 0.007812 0.78516 0.71484 1.5352 1.4648 2.2461 2.2422 0.019531 0.023437 0.042969 0.046875 0.0625 0.066406 0.3125 0.34375 0.61328 0.69531 0.91406 1.0547 0.09375 0.11328 0.1875 0.22656 0.28125 0.34375 0.17188 0.21094 0.35547 0.41406 0.51953 0.63281l5.6797-5.6797c1.6641-1.6641 1.6641-4.3789 0-6.043-0.80469-0.81641-1.875-1.2617-3.0195-1.2617s-2.2148 0.44531-3.0156 1.2539zm-25.086-6.8555c0.15234-0.019531 0.30859-0.027343 0.46484-0.042968 0.35547-0.039063 0.71094-0.070313 1.0664-0.10156 0.26953-0.019531 0.53516-0.046875 0.80859-0.0625 0.64453-0.035156 1.2891-0.058593 1.9414-0.058593s1.3047 0.023437 1.9492 0.058593c0.26563 0.015625 0.52734 0.039063 0.78906 0.0625 0.36328 0.027344 0.72266 0.058594 1.082 0.10156 0.15234 0.015625 0.3125 0.023437 0.46484 0.042968v-8.0039c0-2.3594-1.9219-4.2812-4.2812-4.2812s-4.2812 1.9219-4.2812 4.2812zm-22.57 12.914c0.16406-0.21484 0.34766-0.41797 0.51953-0.62891 0.09375-0.11328 0.1875-0.23047 0.28516-0.34375 0.29688-0.35547 0.59766-0.70312 0.90625-1.0469 0.027343-0.03125 0.054687-0.058594 0.082031-0.089844 0.6875-0.75391 1.4102-1.4766 2.1719-2.1719 0.023437-0.023437 0.050781-0.046875 0.074219-0.070313 0.34375-0.3125 0.69531-0.61328 1.0508-0.91016 0.10156-0.085937 0.20312-0.17188 0.30469-0.25391 0.21875-0.17969 0.42578-0.36719 0.64844-0.53906l-5.6836-5.6602c-0.80859-0.81641-1.8789-1.2617-3.0234-1.2617s-2.2148 0.44531-3.0156 1.2539c-1.6719 1.6719-1.6719 4.3828-0.007813 6.0508zm6.0469 47.629c-0.16016-0.125-0.3125-0.26172-0.47266-0.39062-0.20312-0.16406-0.40234-0.32812-0.60156-0.49609-0.31641-0.26953-0.63281-0.53516-0.9375-0.8125-0.003907-0.003906-0.011719-0.011718-0.015626-0.015624-1.4688-1.3281-2.8164-2.7695-4.0195-4.3242l-5.6797 5.6797c-1.6641 1.668-1.6641 4.3789 0 6.043 0.80469 0.81641 1.875 1.2617 3.0195 1.2617s2.2148-0.44531 3.0156-1.2539zm25.09 6.8633c-0.058594 0.007813-0.10938 0.007813-0.16797 0.015626-0.58594 0.070312-1.1758 0.12891-1.7695 0.16797-0.10938 0.007813-0.22656 0.019532-0.33594 0.023438-0.62109 0.035156-1.2422 0.058594-1.8711 0.0625h-0.26953c-0.63281-0.003906-1.2578-0.023438-1.8789-0.0625-0.10938-0.007813-0.22266-0.019532-0.32812-0.023438-0.59766-0.039062-1.1875-0.097656-1.7773-0.16797-0.054687-0.007813-0.10937-0.007813-0.16406-0.015626v8.0156c0 2.3594 1.9219 4.2812 4.2812 4.2812s4.2812-1.9219 4.2812-4.2812l-0.003906-8.0156zm22.566-12.902c-1.4609 1.8906-3.1367 3.6094-4.9883 5.1641-0.1875 0.16016-0.37891 0.31641-0.57031 0.47266-0.16406 0.13281-0.32031 0.27344-0.48828 0.40234l5.6797 5.6836c0.80469 0.81641 1.875 1.2617 3.0195 1.2617s2.2148-0.44531 3.0156-1.2539c1.6719-1.6719 1.6719-4.3828 0.007813-6.0508zm4.1055-20.809c0-0.50781-0.015625-1.0117-0.039063-1.5117-0.007812-0.13672-0.019531-0.26953-0.027343-0.40234-0.023438-0.37109-0.050781-0.74219-0.085938-1.1133-0.015625-0.14453-0.03125-0.28516-0.050781-0.43359-0.039062-0.35156-0.082031-0.69922-0.13281-1.0469-0.023438-0.16797-0.050782-0.33203-0.078126-0.49609-0.77734-4.7578-2.6445-9.1523-5.3359-12.926-0.39062-0.55078-0.79688-1.0898-1.2266-1.6133-0.18359-0.22656-0.375-0.44141-0.5625-0.66016-0.36719-0.42969-0.75391-0.84766-1.1484-1.2578-0.23047-0.23828-0.46094-0.47656-0.69922-0.70703-0.41797-0.40625-0.84766-0.80078-1.2891-1.1875-0.24609-0.21484-0.48828-0.42578-0.74219-0.63281-0.42188-0.34766-0.86328-0.67969-1.3086-1.0078-3.9023-2.8555-8.4922-4.8242-13.473-5.5977-0.03125-0.003906-0.0625-0.011719-0.097656-0.015625-0.44141-0.066406-0.88672-0.12109-1.3359-0.17188-0.085937-0.007813-0.17187-0.019531-0.25781-0.027344-0.36719-0.035156-0.73828-0.0625-1.1094-0.085937-0.16016-0.011719-0.31641-0.023438-0.47656-0.03125-0.32031-0.015625-0.64453-0.019532-0.97266-0.023438-0.34375-0.003906-0.68359-0.003906-1.0273 0-0.32422 0.007813-0.65234 0.011719-0.97656 0.023438-0.15625 0.007812-0.3125 0.019531-0.46875 0.03125-0.37109 0.023437-0.74609 0.050781-1.1133 0.085937-0.085938 0.007813-0.17188 0.019531-0.25781 0.027344-0.44531 0.046875-0.89062 0.10156-1.3281 0.17188-0.039062 0.003906-0.074219 0.011719-0.11328 0.019531-4.9727 0.77344-9.5547 2.7383-13.453 5.5859-0.46094 0.33984-0.91406 0.68359-1.3516 1.0391-0.23828 0.19531-0.47266 0.39844-0.70312 0.60156-0.44531 0.39062-0.88281 0.78516-1.3047 1.1953-0.23438 0.23047-0.46484 0.46484-0.69141 0.69922-0.39453 0.41016-0.77734 0.82812-1.1484 1.2617-0.1875 0.21875-0.37891 0.4375-0.5625 0.66406-0.42578 0.52344-0.83594 1.0625-1.2227 1.6094-2.6875 3.7695-4.5586 8.1641-5.3359 12.926-0.027343 0.16797-0.054687 0.33984-0.078124 0.50781-0.050782 0.33594-0.089844 0.67578-0.12891 1.0156-0.019531 0.15234-0.035156 0.30859-0.050781 0.46484-0.035156 0.35547-0.0625 0.71875-0.082031 1.0781-0.007813 0.14453-0.019531 0.28516-0.027344 0.42969-0.023437 0.5-0.039063 1-0.039063 1.5078 0 0.51172 0.015626 1.0195 0.039063 1.5273 0.003906 0.10547 0.015625 0.21094 0.019531 0.31641 0.023438 0.41406 0.054688 0.82422 0.09375 1.2344 0.007813 0.085937 0.019532 0.17188 0.027344 0.25781 0.046875 0.43359 0.10156 0.85938 0.16406 1.2891 0.011719 0.070312 0.019532 0.14062 0.03125 0.21094 0.76953 4.9023 2.6992 9.4258 5.4883 13.285 0.28516 0.39453 0.58203 0.78516 0.88672 1.168 0.30078 0.37891 0.60938 0.74609 0.92969 1.1094 0.28125 0.32031 0.57031 0.64062 0.86719 0.94922 0.30469 0.31641 0.60937 0.62891 0.92578 0.93359 0.41016 0.39453 0.82812 0.77734 1.2617 1.1523 0.16406 0.14453 0.32812 0.28906 0.49609 0.43359 0.59375 0.48828 1.2109 0.95703 1.8438 1.4062 3.7695 2.6797 8.1523 4.5352 12.902 5.3086 0.21484 0.03125 0.42969 0.066406 0.63672 0.097656 0.19141 0.027344 0.38281 0.050782 0.57422 0.074219 0.30078 0.035156 0.60156 0.070313 0.89453 0.10156 0.29688 0.027343 0.58984 0.050781 0.88672 0.066406 0.15234 0.011718 0.30859 0.023437 0.46484 0.03125 0.50391 0.023437 1.0078 0.039062 1.5156 0.039062 0.50781 0 1.0117-0.015625 1.5156-0.039062 0.15234-0.007813 0.3125-0.019532 0.46484-0.03125 0.29688-0.019532 0.59375-0.039063 0.88672-0.066406 0.29688-0.027344 0.59375-0.0625 0.89453-0.10156 0.19531-0.023437 0.39062-0.046875 0.58203-0.074219 0.20703-0.027344 0.42188-0.0625 0.63281-0.09375 4.7539-0.77344 9.1484-2.6328 12.918-5.3164 0.62891-0.44531 1.2383-0.91016 1.8242-1.3945 0.17578-0.14453 0.33984-0.29688 0.51172-0.44141 0.42578-0.36719 0.83984-0.75 1.2461-1.1406 0.31641-0.30859 0.62891-0.62109 0.93359-0.94141 0.29687-0.30859 0.58594-0.625 0.86719-0.94531 0.31641-0.36328 0.62891-0.73047 0.92969-1.1094 0.30469-0.38281 0.60156-0.76953 0.88672-1.168 2.7891-3.8594 4.7188-8.3867 5.4883-13.293 0.011719-0.0625 0.019532-0.12891 0.03125-0.19531 0.066407-0.4375 0.12109-0.875 0.16797-1.3164 0.007813-0.074219 0.019531-0.14844 0.023438-0.22266 0.042969-0.42188 0.070312-0.84375 0.097656-1.2695 0.003906-0.097656 0.015625-0.19141 0.019531-0.28906 0.03125-0.51172 0.042969-1.0273 0.042969-1.5391zm15.055 0c0-2.3477-1.9219-4.2539-4.2812-4.2539h-8.0352c0.015625 0.11719 0.019532 0.24219 0.035156 0.35938 0.046876 0.42188 0.085938 0.84375 0.11719 1.2695 0.015625 0.22266 0.039062 0.44141 0.050781 0.66406 0.035157 0.64844 0.0625 1.3008 0.0625 1.9609 0 0.65625-0.023437 1.3047-0.058593 1.9492-0.015626 0.26172-0.039063 0.51953-0.058594 0.77734-0.027344 0.36719-0.0625 0.73437-0.10156 1.1016-0.015625 0.14844-0.023437 0.30469-0.042969 0.45312h8.0312c2.3594 0.003906 4.2812-1.918 4.2812-4.2812z" fill="#000000"/>

  </g></svg>